<svg fill="none" height="512" viewBox="0 0 24 24" width="512" xmlns="http://www.w3.org/2000/svg"><g clip-rule="evenodd" fill="rgb(0,0,0)" fill-rule="evenodd"><path d="m2 5c0-.55228.44772-1 1-1h16c1.6569 0 3 1.34315 3 3v10c0 1.6569-1.3431 3-3 3h-3c-.5523 0-1-.4477-1-1s.4477-1 1-1h3c.5523 0 1-.4477 1-1v-10c0-.55228-.4477-1-1-1h-16c-.55228 0-1-.44772-1-1z"/><path d="m2 14c0-.5523.44772-1 1-1 3.31371 0 6 2.6863 6 6 0 .5523-.44772 1-1 1s-1-.4477-1-1c0-2.2091-1.79086-4-4-4-.55228 0-1-.4477-1-1z"/><path d="m2 10c0-.55228.44772-1 1-1 5.52285 0 10 4.4772 10 10 0 .5523-.4477 1-1 1s-1-.4477-1-1c0-4.4183-3.58172-8-8-8-.55228 0-1-.4477-1-1z"/><path d="m2 18c0-.5523.44772-1 1-1 1.10457 0 2 .8954 2 2 0 .5523-.44772 1-1 1h-1c-.55228 0-1-.4477-1-1z"/></g></svg>