<svg id="Capa_1" enable-background="new 0 0 512 512" height="512" viewBox="0 0 512 512" width="512" xmlns="http://www.w3.org/2000/svg"><path d="m465.454 46.546h-418.908c-25.598 0-46.546 20.944-46.546 46.546v69.815h46.546v-69.815h418.908v325.815h-162.908v46.546h162.908c25.602 0 46.546-20.944 46.546-46.546v-325.815c0-25.602-20.944-46.546-46.546-46.546zm-465.454 349.089v69.819h69.819c0-38.631-31.184-69.819-69.819-69.819zm0-93.089v46.546c64.233 0 116.365 52.128 116.365 116.361h46.546c.001-90.064-72.846-162.907-162.911-162.907zm0-93.092v46.546c115.667 0 209.454 93.791 209.454 209.454h46.546c0-141.499-114.735-256-256-256z"/></svg>