<svg id="Layer_1" enable-background="new 0 0 128 128" height="512" viewBox="0 0 128 128" width="512" xmlns="http://www.w3.org/2000/svg"><path id="High_Volume" d="m76 116h-12c-1.063 0-2.078-.422-2.828-1.172l-22.828-22.828h-18.344c-6.617 0-12-5.383-12-12v-32c0-6.617 5.383-12 12-12h18.344l22.828-22.828c.75-.75 1.766-1.172 2.828-1.172h12c2.211 0 4 1.791 4 4v96c0 2.209-1.789 4-4 4zm-10.344-8h6.344v-88h-6.344l-22.828 22.828c-.75.75-1.765 1.172-2.828 1.172h-20c-2.207 0-4 1.795-4 4v32c0 2.205 1.793 4 4 4h20c1.063 0 2.078.422 2.828 1.172zm28.133-24.422c.418-.209 10.211-5.269 10.211-19.578s-9.793-19.369-10.211-19.578c-1.953-.973-4.305-.188-5.309 1.75-1.008 1.938-.246 4.342 1.68 5.379.238.129 5.84 3.256 5.84 12.449s-5.602 12.32-5.789 12.422c-1.977.988-2.777 3.391-1.789 5.367.703 1.402 2.113 2.211 3.582 2.211.601 0 1.211-.135 1.785-.422zm8 16c.742-.373 18.211-9.406 18.211-35.578s-17.469-35.205-18.211-35.578c-1.977-.98-4.344-.188-5.34 1.77-.996 1.959-.215 4.363 1.738 5.373.563.292 13.813 7.398 13.813 28.435s-13.25 28.143-13.789 28.422c-1.977.988-2.777 3.391-1.789 5.367.703 1.402 2.113 2.211 3.582 2.211.601 0 1.211-.135 1.785-.422z"/></svg>