<?xml version="1.0" standalone="no"?>
<!DOCTYPE svg PUBLIC "-//W3C//DTD SVG 20010904//EN"
 "http://www.w3.org/TR/2001/REC-SVG-20010904/DTD/svg10.dtd">
<svg version="1.0" xmlns="http://www.w3.org/2000/svg"
 width="512.000000pt" height="512.000000pt" viewBox="0 0 512.000000 512.000000"
 preserveAspectRatio="xMidYMid meet">

<g transform="translate(0.000000,512.000000) scale(0.100000,-0.100000)"
fill="#000000" stroke="none">
<path d="M2909 4104 c-376 -284 -697 -523 -714 -532 -27 -15 -110 -17 -840
-22 -590 -4 -815 -8 -830 -17 -31 -18 -73 -65 -84 -96 -8 -19 -11 -295 -11
-855 0 -927 -5 -864 73 -926 l39 -31 224 0 225 0 1304 1125 1305 1124 0 373
c0 205 -1 373 -3 373 -2 0 -311 -232 -688 -516z"/>
<path d="M4562 4588 c-57 -31 -4139 -3552 -4162 -3590 -44 -73 -32 -140 32
-171 35 -17 41 -17 90 -3 48 14 239 176 2113 1791 1871 1612 2063 1780 2089
1830 27 51 28 58 17 95 -21 69 -100 91 -179 48z"/>
<path d="M2600 2482 l-995 -857 250 -5 c164 -3 257 -9 270 -17 11 -6 346 -257
745 -558 l725 -546 3 711 c1 390 1 1029 0 1420 l-3 710 -995 -858z"/>
</g>
</svg>
