<svg height="512pt" viewBox="0 -56 512 512" width="512pt" xmlns="http://www.w3.org/2000/svg"><path d="m432 400h-352c-44.113281 0-80-35.886719-80-80v-240c0-44.113281 35.886719-80 80-80h352c44.113281 0 80 35.886719 80 80v140c0 11.046875-8.953125 20-20 20s-20-8.953125-20-20v-140c0-22.054688-17.945312-40-40-40h-352c-22.054688 0-40 17.945312-40 40v240c0 22.054688 17.945312 40 40 40h352c22.054688 0 40-17.945312 40-40 0-11.046875 8.953125-20 20-20s20 8.953125 20 20c0 44.113281-35.886719 80-80 80zm-219.824219-168c-8.339843 0-15.625 5.332031-18.484375 13.160156-5.207031 14.257813-18.660156 24.449219-34.777344 24.828125-21.367187.507813-38.914062-16.730469-38.914062-37.988281v-63.285156c0-20.753906 16.339844-38.210938 37.085938-38.703125 16.765624-.398438 31.175781 10.125 36.609374 24.945312 2.847657 7.777344 10.121094 13.042969 18.40625 13.042969h1.03125c13.421876 0 22.914063-13.261719 18.441407-25.917969-10.789063-30.535156-40.082031-52.410156-74.34375-52.078125-42.484375.410156-77.230469 36.503906-77.230469 78.992188v62.011718c0 42.941407 34.289062 78.574219 77.230469 78.988282 34.238281.332031 63.515625-21.511719 74.320312-52.011719 4.492188-12.683594-5.03125-25.984375-18.488281-25.984375zm196 0c-8.339843 0-15.625 5.332031-18.484375 13.160156-5.207031 14.257813-18.660156 24.449219-34.777344 24.828125-21.367187.507813-38.914062-16.730469-38.914062-37.988281v-63.285156c0-20.753906 16.339844-38.210938 37.085938-38.703125 16.765624-.398438 31.175781 10.125 36.609374 24.945312 2.847657 7.777344 10.121094 13.042969 18.40625 13.042969h1.03125c13.421876 0 22.914063-13.261719 18.441407-25.917969-10.789063-30.535156-40.082031-52.410156-74.34375-52.078125-42.484375.410156-77.230469 36.503906-77.230469 78.992188v62.011718c0 42.941407 34.289062 78.574219 77.230469 78.988282 34.238281.332031 63.515625-21.511719 74.320312-52.011719 4.492188-12.683594-5.03125-25.984375-18.488281-25.984375zm0 0"/></svg>