<svg id="Capa_1" enable-background="new 0 0 512 512" height="512" viewBox="0 0 512 512" width="512" xmlns="http://www.w3.org/2000/svg"><path id="XMLID_1988_" d="m496.964 73.72h-481.928c-8.304 0-15.036 6.732-15.036 15.036v276.892c0 8.304 6.732 15.036 15.036 15.036h187.944v27.523h-40.564c-8.304 0-15.036 6.732-15.036 15.036s6.732 15.036 15.036 15.036h187.167c8.304 0 15.036-6.732 15.036-15.036s-6.732-15.036-15.036-15.036h-40.563v-27.523h187.944c8.304 0 15.036-6.732 15.036-15.036v-276.892c0-8.304-6.732-15.036-15.036-15.036zm-218.016 334.488h-45.896v-27.523h45.896zm202.98-57.595h-451.856v-246.82h451.856z"/></svg>